<?xml version="1.0" encoding="UTF-8" standalone="no"?>
<!DOCTYPE svg PUBLIC "-//W3C//DTD SVG 1.1//EN" "http://www.w3.org/Graphics/SVG/1.1/DTD/svg11.dtd">
<svg width="100%" height="100%" viewBox="0 0 761 1203" version="1.1" xmlns="http://www.w3.org/2000/svg" xmlns:xlink="http://www.w3.org/1999/xlink" xml:space="preserve" xmlns:serif="http://www.serif.com/" style="fill-rule:evenodd;clip-rule:evenodd;stroke-linejoin:round;stroke-miterlimit:2;">
    <g transform="matrix(1,0,0,1,-219.085,-32.556)">
        <g transform="matrix(1,0,0,1,-838.92,-3368.63)">
            <g transform="matrix(0.73207,0,0,0.73207,310.264,1715.16)">
                <path d="M1136.56,3946.13C1113.75,3946.13 1093.64,3941.44 1076.23,3932.08C1058.82,3922.71 1045.33,3909.63 1035.76,3892.83C1026.19,3876.03 1021.41,3856.84 1021.41,3835.25C1021.41,3814.07 1026.19,3795.09 1035.76,3778.29C1045.33,3761.49 1058.67,3748.3 1075.78,3738.73C1092.88,3729.16 1112.33,3724.38 1134.11,3724.38C1150.4,3724.38 1165.83,3727.12 1180.39,3732.62C1194.95,3738.12 1208.23,3746.37 1220.25,3757.36L1192.15,3791.88C1185.02,3784.95 1176.57,3779.66 1166.8,3776C1157.02,3772.33 1146.94,3770.5 1136.56,3770.5C1124.14,3770.5 1113.19,3773.25 1103.72,3778.74C1094.25,3784.24 1086.87,3791.93 1081.58,3801.81C1076.28,3811.68 1073.64,3822.83 1073.64,3835.25C1073.64,3848.08 1076.28,3859.38 1081.58,3869.16C1086.87,3878.93 1094.46,3886.51 1104.33,3891.91C1114.21,3897.31 1125.77,3900 1139,3900C1156.11,3900 1171.58,3895.93 1185.43,3887.79L1185.43,3859.99L1125.26,3859.99L1125.26,3819.98L1229.72,3819.98L1229.72,3911.61C1217.91,3922.81 1203.86,3931.36 1187.57,3937.27C1171.28,3943.17 1154.27,3946.13 1136.56,3946.13Z" style="fill-rule:nonzero;"/>
            </g>
            <g transform="matrix(0.73207,0,0,0.73207,300.331,1715.16)">
                <path d="M1343.34,3946.13C1325.62,3946.13 1310.05,3942.66 1296.61,3935.74C1283.17,3928.82 1272.78,3919.14 1265.45,3906.72C1258.12,3894.3 1254.46,3879.95 1254.46,3863.66C1254.46,3847.57 1257.97,3833.22 1265,3820.59C1272.02,3807.97 1281.95,3798.14 1294.78,3791.12C1307.6,3784.09 1322.16,3780.58 1338.45,3780.58C1354.74,3780.58 1369.2,3784.14 1381.83,3791.27C1394.45,3798.39 1404.23,3808.27 1411.15,3820.89C1418.07,3833.52 1421.53,3847.77 1421.53,3863.66C1421.53,3868.75 1421.02,3874.65 1420.01,3881.37L1302.41,3881.37C1304.86,3889.72 1310,3896.29 1317.84,3901.07C1325.68,3905.86 1335.4,3908.25 1347.01,3908.25C1364.31,3908.25 1380.1,3903.06 1394.35,3892.67L1413.59,3923.83C1404.63,3930.96 1394.14,3936.45 1382.13,3940.32C1370.12,3944.19 1357.19,3946.13 1343.34,3946.13ZM1375.72,3849.61C1373.68,3840.24 1369.45,3832.76 1363.04,3827.16C1356.63,3821.56 1348.53,3818.76 1338.76,3818.76C1329.19,3818.76 1321.09,3821.56 1314.48,3827.16C1307.86,3832.76 1303.63,3840.24 1301.8,3849.61L1375.72,3849.61Z" style="fill-rule:nonzero;"/>
            </g>
            <g transform="matrix(0.73207,0,0,0.73207,292.286,1715.16)">
                <path d="M1551.65,3946.13C1529.86,3946.13 1510.62,3941.34 1493.92,3931.77C1477.23,3922.2 1464.35,3909.01 1455.28,3892.22C1446.22,3875.42 1441.69,3856.43 1441.69,3835.25C1441.69,3814.48 1446.22,3795.65 1455.28,3778.74C1464.35,3761.84 1477.12,3748.56 1493.62,3738.89C1510.11,3729.21 1529.15,3724.38 1550.73,3724.38C1585.96,3724.38 1616.1,3738.53 1641.14,3766.83L1609.07,3800.43C1601.95,3791.27 1593.65,3784.29 1584.18,3779.51C1574.71,3774.72 1564.68,3772.33 1554.09,3772.33C1542.49,3772.33 1532.26,3774.98 1523.4,3780.27C1514.54,3785.57 1507.67,3793 1502.78,3802.57C1497.89,3812.14 1495.45,3823.03 1495.45,3835.25C1495.45,3847.67 1497.89,3858.62 1502.78,3868.09C1507.67,3877.56 1514.64,3884.94 1523.7,3890.23C1532.76,3895.53 1543.2,3898.17 1555.01,3898.17C1578.43,3898.17 1597.98,3888.3 1613.65,3868.54L1645.73,3902.14C1634.12,3917.01 1620.17,3928.05 1603.88,3935.28C1587.59,3942.51 1570.18,3946.13 1551.65,3946.13Z" style="fill-rule:nonzero;"/>
            </g>
            <g transform="matrix(0.73207,0,0,0.759574,292.286,1609.71)">
                <path d="M1741.63,3857.55L1724.84,3857.55L1724.84,3942.16L1672.3,3942.16L1672.3,3728.35L1724.84,3728.35L1724.84,3810.82L1741.63,3810.82L1792.03,3728.35L1853.12,3728.35L1786.53,3833.11L1855.56,3942.16L1793.86,3942.16L1741.63,3857.55Z" style="fill-rule:nonzero;"/>
            </g>
            <g transform="matrix(0.73207,0,0,0.73207,292.286,1715.16)">
                <path d="M1971.33,3946.13C1949.74,3946.13 1930.29,3941.34 1912.99,3931.77C1895.68,3922.2 1882.09,3909.01 1872.21,3892.22C1862.33,3875.42 1857.4,3856.43 1857.4,3835.25C1857.4,3814.07 1862.33,3795.09 1872.21,3778.29C1882.09,3761.49 1895.68,3748.3 1912.99,3738.73C1930.29,3729.16 1949.74,3724.38 1971.33,3724.38C1993.11,3724.38 2012.66,3729.16 2029.97,3738.73C2047.28,3748.3 2060.82,3761.49 2070.59,3778.29C2080.37,3795.09 2085.25,3814.07 2085.25,3835.25C2085.25,3856.43 2080.37,3875.42 2070.59,3892.22C2060.82,3909.01 2047.28,3922.2 2029.97,3931.77C2012.66,3941.34 1993.11,3946.13 1971.33,3946.13ZM1911.15,3835.25C1911.15,3847.47 1913.7,3858.36 1918.79,3867.93C1923.88,3877.5 1931.01,3884.94 1940.17,3890.23C1949.33,3895.53 1959.72,3898.17 1971.33,3898.17C1982.93,3898.17 1993.32,3895.53 2002.48,3890.23C2011.64,3884.94 2018.82,3877.5 2024.01,3867.93C2029.21,3858.36 2031.8,3847.47 2031.8,3835.25C2031.8,3823.03 2029.21,3812.14 2024.01,3802.57C2018.82,3793 2011.64,3785.57 2002.48,3780.27C1993.32,3774.98 1982.93,3772.33 1971.33,3772.33C1959.72,3772.33 1949.33,3774.98 1940.17,3780.27C1931.01,3785.57 1923.88,3793 1918.79,3802.57C1913.7,3812.14 1911.15,3823.03 1911.15,3835.25Z" style="fill-rule:nonzero;"/>
            </g>
            <g transform="matrix(0.704708,-0.186561,0.186561,0.704708,201.257,2741.92)">
                <circle cx="1687.11" cy="1675.58" r="57.726"/>
            </g>
            <g transform="matrix(0.704708,-0.186561,0.186561,0.704708,264.435,2833.44)">
                <circle cx="1687.11" cy="1675.58" r="57.726" style="fill:rgb(198,57,58);"/>
            </g>
            <g transform="matrix(0.704708,-0.186561,0.186561,0.704708,275.228,2939.56)">
                <circle cx="1687.11" cy="1675.58" r="57.726"/>
            </g>
            <g transform="matrix(0.704708,-0.186561,0.186561,0.704708,254.49,3040)">
                <circle cx="1687.11" cy="1675.58" r="57.726"/>
            </g>
            <g transform="matrix(0.406478,0.60514,-0.60514,0.406478,1946.02,1929.72)">
                <path d="M1771.39,1921.04C1790.65,1942.47 1841.38,2004.96 1838.89,2062.74C1835.69,2137.12 1796.9,2215.45 1701.86,2211.43C1663.19,2209.8 1635.92,2195.16 1622.41,2190.22C1608.91,2185.28 1562.46,2167.52 1559.9,2206.77C1558.89,2222.31 1568.12,2252.8 1532.99,2250.66C1497.59,2248.5 1508.64,2215.03 1519.13,2208.21C1525.1,2204.33 1542.13,2185.51 1535.26,2179.57C1528.39,2173.63 1498.68,2185.69 1492.41,2207.58C1486.02,2229.95 1466.92,2238.37 1447.35,2221.54C1430.27,2206.86 1437.64,2184.32 1455.14,2181.75C1469.12,2179.69 1514.15,2161.43 1507.75,2153.14C1501.36,2144.84 1474.24,2151.92 1452.37,2159.73C1421.92,2170.59 1414.69,2140.24 1417.7,2129.78C1420.71,2119.31 1432.47,2098.72 1463.38,2114.47C1478.55,2122.19 1488.53,2123.12 1495.28,2123.12C1512.96,2123.12 1519.19,2118.44 1513.12,2113.14C1507.05,2107.85 1505.76,2102.48 1485.91,2097.6C1484.99,2097.37 1484.06,2097.12 1483.12,2096.85C1463.68,2091.12 1442.29,2071.47 1463.34,2050.06C1489.91,2023.04 1513.72,2068.96 1513.72,2068.96C1513.72,2068.96 1536.93,2103.42 1547.64,2100.17C1558.35,2096.91 1556.9,2078.14 1555.54,2071.41C1554.07,2064.17 1541.52,2022.06 1581.03,2026.84C1616.64,2031.15 1595.59,2070.57 1592.49,2073.61C1589.39,2076.65 1571.42,2111.89 1606.19,2112.84C1640.96,2113.79 1739.27,2135.76 1731.56,2056.11C1724.61,1984.29 1674.63,1934.04 1664.86,1924.85C1672.55,1923.18 1679.44,1921.86 1684.67,1921C1717.93,1915.51 1740.1,1911.51 1771.39,1921.04Z"/>
            </g>
            <g transform="matrix(0.728985,0,0,0.728985,208.134,2275.85)">
                <path d="M1381.8,1774.34C1369.83,1737.83 1380.27,1717.04 1406.85,1699.74C1433.43,1682.45 1506.42,1634.58 1506.42,1634.58C1506.42,1634.58 1530.55,1621.52 1535.26,1602.15C1539.91,1583.05 1561.97,1560.93 1588.02,1550.53C1614.06,1540.13 1659.43,1539.07 1700.02,1565.55C1700.02,1565.55 1706.43,1569.32 1713.59,1569.11C1720.76,1568.9 1877.18,1546 1998.35,1701.95L1908.29,1798.67C1908.29,1798.67 1834.32,1875.33 1737.27,1867.36C1640.22,1859.38 1451.25,1824.46 1451.25,1824.46C1451.25,1824.46 1393.76,1810.85 1381.8,1774.34ZM1681.06,1587.37C1633.2,1587.37 1594.35,1626.23 1594.35,1674.09C1594.35,1721.94 1633.2,1760.8 1681.06,1760.8C1728.92,1760.8 1767.77,1721.94 1767.77,1674.09C1767.77,1626.23 1728.92,1587.37 1681.06,1587.37Z"/>
            </g>
            <g transform="matrix(0.728985,0,0,0.728985,203.874,2275.11)">
                <circle cx="1687.11" cy="1675.58" r="57.726"/>
            </g>
            <g transform="matrix(1.24356,0,0,1.24356,1038.24,3950.02)">
                <path d="M17.934,393.943C17.295,394.409 16.661,394.881 16.031,395.359C15.691,390.924 16,386.44 16.999,382.105C17.777,378.728 18.972,375.449 20.551,372.363C21.743,370.033 23.151,367.816 24.744,365.739C36.947,349.83 57.918,343.903 77.071,342.455C80.855,342.169 84.651,342.047 88.446,342.062C105.896,342.129 123.347,342.44 140.795,342.731C151.114,342.903 161.463,342.901 171.776,343.351C192.356,344.231 213.151,344.485 233.538,341.099C215.946,323.507 198.354,305.916 180.763,288.324C180.763,288.568 180.448,281.983 181.77,275.674C183.093,269.366 185.744,264.61 185.744,264.562C209.364,288.178 232.983,311.794 256.603,335.41C271.565,330.377 285.464,322.607 297.701,312.644C264.597,279.543 231.492,246.442 198.388,213.341C190.312,222.13 183.542,232.084 178.55,242.935C173.596,253.704 170.444,265.213 168.667,276.916C166.166,293.367 165.298,313.6 166.025,330.184C162.634,330.012 159.243,329.839 155.852,329.666C155.27,329.606 154.684,329.576 154.099,329.576C149.241,329.328 144.382,329.078 139.523,328.859C138.82,311.356 139.899,290.242 142.534,272.891C144.716,258.502 148.65,244.368 154.824,231.166C161.327,217.263 170.234,204.605 180.803,193.494C191.812,181.916 204.264,171.689 218.075,163.623C231.095,156.019 245.208,150.435 259.831,146.796C281.404,141.425 303.728,140.309 325.877,140.729C326.195,146.101 326.556,151.471 326.933,156.839C327.181,160.299 327.42,163.76 327.651,167.221C311.125,166.829 294.487,167.196 278.153,169.951C296.124,187.921 314.094,205.891 332.064,223.862C332.247,224.045 333.014,227.395 330.938,235.541C328.814,243.877 327.208,246.97 327.073,247.614C303.091,223.633 279.11,199.651 255.128,175.67C239.78,180.878 225.567,188.962 213.113,199.322C246.264,232.473 279.415,265.624 312.566,298.775C320.936,289.877 327.975,279.76 333.154,268.685C338.274,257.739 341.519,246.014 343.333,234.084C347.275,208.159 345.12,181.657 343.293,155.654C341.402,128.743 339.389,101.366 343.492,74.553C345.331,62.536 347.914,50.594 352.2,39.193C356.73,27.138 363.163,15.881 371.289,5.887C372.405,4.514 373.515,3.135 374.626,1.758L374.541,1.699C385.162,-10.968 395.26,-24.196 403.303,-38.677C406.604,-45.863 409.905,-53.049 413.206,-60.236C418.716,-75.478 421.271,-91.628 420.95,-107.825C420.363,-114.576 419.776,-121.328 419.189,-128.079C417.362,-139.874 413.811,-151.378 408.449,-162.05C403.127,-172.642 396.103,-182.288 388.068,-190.981C382.504,-197.004 376.414,-202.565 370.393,-208.122C362.423,-215.478 354.344,-222.717 346.2,-229.881C349.305,-227.887 363.353,-227.129 370.554,-227.78C376.623,-228.33 384.153,-230.473 384.382,-230.471C388.673,-226.754 392.901,-222.96 397.069,-219.106C400.642,-215.801 404.218,-212.464 407.524,-208.887C417.404,-198.2 425.992,-186.306 432.452,-173.242C439.256,-159.483 443.587,-144.623 445.671,-129.431C447.845,-113.603 448.063,-97.491 445.745,-81.666C443.56,-66.747 439.114,-52.236 432.829,-38.54C429.088,-30.384 424.723,-22.523 419.909,-14.953C476.638,-4.85 533.368,5.253 590.097,15.357C588.853,22.344 587.608,29.331 586.364,36.318L586.226,36.294C585.802,37.961 585.37,39.627 584.949,41.296C580.219,60.05 571.846,77.712 559.99,93.031C560.206,93.042 560.638,93.053 560.638,93.053C560.071,93.483 559.583,94.126 559.108,94.639C557.974,95.864 556.844,97.091 555.704,98.31C551.045,103.784 545.995,108.918 540.667,113.741C539.721,114.597 538.737,115.411 537.711,116.168C528.352,124.742 518.438,132.769 507.807,139.72C489.861,151.453 469.969,159.92 449.035,164.621C428.75,169.176 407.884,170.259 387.151,169.752C386.79,164.021 386.391,158.293 385.995,152.565C385.771,149.451 385.56,146.335 385.357,143.219C403.954,143.729 422.714,143.303 441.022,139.712C421.972,120.663 402.923,101.613 383.873,82.563C384.188,82.878 383.011,79.87 385.013,70.834C387.155,61.162 389.216,59.162 388.865,58.811C413.746,83.693 438.628,108.574 463.509,133.456C473.867,129.603 483.498,124.041 492.724,118.014C497.958,114.595 503.016,110.911 507.895,107.002C468.543,79.751 429.191,52.5 389.839,25.249C383.738,33.549 379.008,42.768 375.687,52.513C372.804,60.976 370.968,69.752 369.616,78.578C367.741,90.851 367.398,103.31 367.643,115.706C367.894,128.403 368.748,141.084 369.636,153.751C371.603,181.769 373.7,210.189 369.466,238.109C367.279,252.497 363.346,266.629 357.172,279.83C350.67,293.734 341.764,306.393 331.197,317.506C320.188,329.084 307.736,339.311 293.925,347.377C280.905,354.981 266.792,360.565 252.169,364.204C225.546,370.828 197.93,370.938 170.68,369.773C164.996,369.528 159.314,369.246 153.633,368.946C145.288,368.516 136.926,368.395 128.572,368.293C113.457,368.106 98.344,368.19 83.228,368.19C66.593,368.19 49.978,371.839 35.547,380.301C29.121,384.07 23.166,388.636 17.934,393.943ZM406.403,4.268C405.45,5.513 404.489,6.752 403.52,7.984C443.529,36.363 483.538,64.741 523.547,93.119C526.971,89.767 530.282,86.301 533.474,82.727C534.412,81.677 535.339,80.616 536.261,79.55C536.824,78.899 537.395,78.019 538.099,77.486C538.099,77.486 538.208,77.723 538.265,77.84C548.226,65.22 555.324,50.629 559.289,35.056C559.576,33.929 559.728,32.754 559.938,31.612C508.76,22.497 457.581,13.383 406.403,4.268Z"/>
            </g>
            <g transform="matrix(0.0834326,-0.632449,0.785849,0.103669,-1851.23,4672.43)">
                <path d="M1956.55,4322.71C1944.14,4319.77 1931.02,4319.82 1918.64,4322.88L1918.64,4156.55L1956.55,4156.55L1956.55,4322.71Z"/>
            </g>
            <g transform="matrix(-0.0147568,-0.698428,0.88304,-0.0186574,-2057.48,5245.48)">
                <path d="M1956.55,4319.48C1946.75,4317.38 1936.53,4317.29 1926.68,4319.18C1923.97,4319.7 1921.28,4320.37 1918.64,4321.19L1918.64,4156.55L1956.55,4156.55L1956.55,4319.48Z"/>
            </g>
            <g transform="matrix(-0.227004,-0.660673,0.903047,-0.310283,-1740.48,6337.86)">
                <path d="M1956.55,4318.71C1951.72,4317.82 1946.81,4317.38 1941.9,4317.37C1934.05,4317.36 1926.17,4318.45 1918.64,4320.74L1918.64,4156.55L1956.55,4156.55L1956.55,4318.71Z"/>
            </g>
            <g transform="matrix(-0.394432,-0.576578,0.723639,-0.495035,-699.154,6892)">
                <path d="M1956.55,4320.51C1944.14,4317.45 1930.94,4317.66 1918.64,4321.14L1918.64,4156.55L1956.55,4156.55L1956.55,4320.51Z"/>
            </g>
        </g>
    </g>
</svg>
